# xmcd CD database file
#
# Track frame offsets:
#	150
#	10808
#	25531
#	37793
#	51693
#	65227
#	82867
#	96514
#	112675
#	128812
#	143651
#	156570
#
# Disc length: 2322 seconds
#
# Revision: 1
# Processed by: cddbd v1.5.2PL0 Copyright (c) Steve Scherf et al.
# Submitted via: CDex 1.70beta2
#
DISCID=9809100c
DTITLE=Philippe Audibert - cake walkdance
DYEAR=1992
DGENRE=Jazz
TTITLE0=Doin' the new low down (Mettyh-Fields)
TTITLE1=Of all the wrongs... (Smith-Dowell-Payton)
TTITLE2=Moulin a cafe (S. Bechet)
TTITLE3=Southern sunset (Bechet-Brooks)
TTITLE4=She me sha wabble (Williams)
TTITLE5=Mandy make up your mind (Meyer-Johnston)
TTITLE6=Blackstick (S. Bechet)
TTITLE7=Premier bal (S. Bechet)
TTITLE8=Cake walking babies (Williams-Smith)
TTITLE9=Promenade aux Champs Elysees (S. Bechet)
TTITLE10=Petite Fleur (S. Bechet)
TTITLE11=Dans les rues d'Antibes (S. Bechet)
EXTD=YEAR: 1992
EXTT0=
EXTT1=
EXTT2=
EXTT3=
EXTT4=
EXTT5=
EXTT6=
EXTT7=
EXTT8=
EXTT9=
EXTT10=
EXTT11=
PLAYORDER=
